<!DOCTYPE svg PUBLIC "-//W3C//DTD SVG 1.1//EN" "http://www.w3.org/Graphics/SVG/1.1/DTD/svg11.dtd">
<!-- Uploaded to: SVG Repo, www.svgrepo.com, Transformed by: SVG Repo Mixer Tools -->
<svg version="1.1" id="Layer_1" xmlns="http://www.w3.org/2000/svg" xmlns:xlink="http://www.w3.org/1999/xlink" viewBox="0 0 511.999 511.999" xml:space="preserve" width="128px" height="128px" fill="#000000">
<g id="SVGRepo_bgCarrier" stroke-width="0"/>
<g id="SVGRepo_tracerCarrier" stroke-linecap="round" stroke-linejoin="round"/>
<g id="SVGRepo_iconCarrier"> <polygon style="fill:#E2804F;" points="231.469,422.183 175.473,422.183 175.473,391.217 97.026,391.217 97.026,438.698 151.732,438.698 151.732,470.696 231.469,470.696 215.599,446.439 "/> <rect x="96.572" y="390.892" style="fill:#FFFFFF;" width="23.802" height="47.605"/> <path style="fill:#D4E4AC;" d="M501.259,319.996h-63.48c-8.764,0-15.87-7.235-15.87-15.999c0-8.765-7.106-15.999-15.87-15.999 H286.95v86.704h119.089c8.764,0,16.128,7.428,16.128,16.193v14.23c0,9.671,7.581,17.058,17.252,17.058h61.84l-15.87-47.126 L501.259,319.996z"/> <rect x="287.012" y="287.734" style="fill:#FFFFFF;" width="23.802" height="87.282"/> <path style="fill:#F2BF7E;" d="M342.559,81.559h-142.83c-13.147,0-23.805-10.593-23.805-23.74s-10.657-23.74-23.805-23.74H9.29 v142.443h142.83c13.147,0,23.805,10.593,23.805,23.74c0,13.147,10.657,23.74,23.805,23.74h142.83l-31.74-71.221L342.559,81.559z"/> <rect x="9.29" y="33.82" style="fill:#FFFFFF;" width="31.74" height="142.825"/> <path d="M354.472,73.688H199.729c-8.857,0-16.064-7.206-16.064-16.064c0-17.396-14.151-31.547-31.546-31.547H1.548v158.314H152.12 c8.857,0,16.063,7.206,16.063,16.064c0,17.396,14.151,31.547,31.547,31.547h154.742l-35.18-79.157L354.472,73.688z M152.12,168.908 H17.031V41.561H152.12c8.857,0,16.063,7.206,16.063,16.064v115.687C163.475,170.516,157.981,168.908,152.12,168.908z M330.647,216.518H199.729c-8.857,0-16.064-7.206-16.064-16.064V84.768c4.708,2.796,10.202,4.404,16.064,4.404h130.917l-28.3,63.674 L330.647,216.518z"/> <rect y="2.085" width="15.483" height="15.483"/> <rect y="191.998" width="15.483" height="317.916"/> <rect x="278.692" y="255.994" width="15.483" height="15.483"/> <rect x="278.692" y="391.212" width="15.483" height="118.702"/> <path d="M493.491,374.848l18.031-63.11h-73.743c-4.482,0-8.129-3.647-8.129-8.129c0-13.019-10.592-23.611-23.611-23.611H279.272 v102.768h126.767c4.482,0,8.129,3.646,8.129,8.129v14.23c0,13.923,11.327,25.252,25.251,25.252h72.581L493.491,374.848z M406.039,367.283H294.755v-71.802h111.284c4.482,0,8.129,3.646,8.129,8.129v65.115 C411.632,367.792,408.894,367.283,406.039,367.283z M490.518,414.893h-51.1c-5.386,0-9.768-4.382-9.768-9.769v-14.23v-65.116 c2.535,0.932,5.273,1.442,8.129,1.442h53.217L477.287,375.2L490.518,414.893z"/> <path d="M183.665,446.246H88.833v-63.093h94.833V446.246z M104.316,430.763h63.867v-32.127h-63.867V430.763z"/> <polygon points="245.935,477.986 144.378,477.986 144.378,454.375 159.861,454.375 159.861,462.503 217.004,462.503 206.295,446.439 217.004,430.376 191.794,430.376 191.794,414.893 245.935,414.893 224.904,446.439 "/> <rect x="87.736" y="454.176" width="15.483" height="55.738"/> <rect x="87.736" y="359.214" width="15.483" height="15.483"/> </g>
</svg>